# xmcd
#
# Track frame offsets:
#	150
#	17068
#	28327
#	39925
#	56956
#	74257
#	90358
#	104213
#	120023
#	134258
#	145781
#	161847
#	180493
#	193092
#	208724
#	220568
#
# Disc length: 3125 seconds
#
# Revision: 0
# Processed by: cddbd v1.4PL0 Copyright (c) Steve Scherf et al.
# Submitted via: EasyCDDAExtractor 4.6.0.1
#
DISCID=e30c3310
DTITLE=Dave Sheriff - Singalongadance
DYEAR=2001
DGENRE=Country
TTITLE0=You're My Number One
TTITLE1=Let's Twist Again
TTITLE2=Jailhouse Rock
TTITLE3=My Way
TTITLE4=Singing In The Rain
TTITLE5=The Leaving Of Liverpool
TTITLE6=Da Doo Ron Ron
TTITLE7=Crocodile Shoes
TTITLE8=Don't Forget To Remember Me
TTITLE9=At The Hop
TTITLE10=Always
TTITLE11=The Fields Of Athenry
TTITLE12=The Wild Rover
TTITLE13=I Don't Know Why
TTITLE14=It's Only Make Believe
TTITLE15=After All These Years
EXTD=
EXTT0=
EXTT1=
EXTT2=
EXTT3=
EXTT4=
EXTT5=
EXTT6=
EXTT7=
EXTT8=
EXTT9=
EXTT10=
EXTT11=
EXTT12=
EXTT13=
EXTT14=
EXTT15=
PLAYORDER=
